<?xml version="1.0" encoding="UTF-8" standalone="no"?>
<svg
   clip-rule="evenodd"
   fill-rule="evenodd"
   stroke-linejoin="round"
   stroke-miterlimit="2"
   viewBox="0 0 48 48"
   version="1.1"
   id="svg216"
   sodipodi:docname="firewall-config-good-site.svg"
   inkscape:version="1.2 (dc2aedaf03, 2022-05-15)"
   xmlns:inkscape="http://www.inkscape.org/namespaces/inkscape"
   xmlns:sodipodi="http://sodipodi.sourceforge.net/DTD/sodipodi-0.dtd"
   xmlns="http://www.w3.org/2000/svg"
   xmlns:svg="http://www.w3.org/2000/svg">
  <defs
     id="defs198" />
  <sodipodi:namedview
     id="namedview218"
     pagecolor="#ffffff"
     bordercolor="#000000"
     borderopacity="0.25"
     inkscape:showpageshadow="2"
     inkscape:pageopacity="0.0"
     inkscape:pagecheckerboard="0"
     inkscape:deskcolor="#d1d1d1"
     showgrid="false"
     inkscape:zoom="18.041667"
     inkscape:cx="12.110854"
     inkscape:cy="24"
     inkscape:window-width="1912"
     inkscape:window-height="1016"
     inkscape:window-x="2560"
     inkscape:window-y="32"
     inkscape:window-maximized="0"
     inkscape:current-layer="layer1" />
  <g
     id="layer2"
     inkscape:label="group"
     style="filter:url(#filter130)">
    <linearGradient
       id="a"
       x2="1"
       gradientTransform="matrix(.281602 -47.5412 47.5412 .281602 32.5136 48.3386)"
       gradientUnits="userSpaceOnUse">
      <stop
         stop-color="#3b4448"
         offset="0"
         id="stop207"
         class="stopColor006783 svgShape" />
      <stop
         stop-color="#84939b"
         offset="1"
         id="stop209"
         class="stopColor20ccff svgShape" />
    </linearGradient>
    <g
       inkscape:groupmode="layer"
       id="layer1"
       inkscape:label="Layer 1">
      <path
         transform="matrix(0.96129,0,0,0.96129,0.932791,0.934226)"
         d="m46.341 10.269c-.014-1.123-.879-2.05-1.997-2.153-9.291-.869-16.873-5.834-19.373-7.651-.522-.38-1.23-.38-1.753 0-2.494 1.817-10.077 6.782-19.368 7.651-1.118.103-1.977 1.03-1.997 2.153-.112 7.329 1.065 32.209 21.683 37.746.366.097.752.097 1.118 0 20.618-5.532 21.795-30.417 21.687-37.746z"
         fill="url(#a)"
         fill-rule="nonzero"
         id="path212" />
      <path
         d="m40.505 14.192c.079 5.467-.79 24.029-16.023 28.155-.27.073-.555.073-.825 0-15.234-4.13-16.103-22.688-16.02-28.155.014-.837.65-1.529 1.475-1.605 6.865-.649 12.466-4.352 14.31-5.707.386-.284.909-.284 1.295 0 1.847 1.355 7.449 5.058 14.313 5.707.826.076 1.465.768 1.475 1.605zm-10.64 6.577c1.054 0 1.922.869 1.922 1.923v9.613c0 1.054-.868 1.923-1.922 1.923h-11.536c-1.054 0-1.922-.869-1.922-1.923v-9.613c0-1.067.865-1.923 1.922-1.923h.962v-1.922c0-2.637 2.169-4.807 4.806-4.807s4.806 2.17 4.806 4.807v1.922zm-5.768 8.652c1.055 0 1.923-.868 1.923-1.922 0-1.068-.866-1.923-1.923-1.923-1.055 0-1.923.868-1.923 1.923 0 1.054.868 1.922 1.923 1.922zm0-13.458c-1.582 0-2.884 1.302-2.884 2.884v1.922h5.768v-1.922c0-1.582-1.302-2.884-2.884-2.884z"
         fill="#ffffff"
         fill-opacity=".67"
         id="path214" />
    </g>
  </g>
</svg>
